<svg id="Layer_1" data-name="Layer 1" xmlns="http://www.w3.org/2000/svg" viewBox="0 0 120.71 44.67"><defs><style>.cls-1{fill:#fff;}.cls-2,.cls-4{font-size:18.15px;font-family:Righteous-Regular, Righteous;}.cls-2,.cls-4,.cls-6{fill:#2f4098;}.cls-3{letter-spacing:-0.01em;}.cls-4{letter-spacing:-0.06em;}.cls-5{letter-spacing:0em;}</style></defs><rect class="cls-1" width="120.71" height="44.67"/><text class="cls-2" transform="translate(33.47 29.92) scale(1.25 1)"><tspan class="cls-3">U</tspan><tspan x="12.05" y="0">ni</tspan></text><text class="cls-4" transform="translate(67.02 29.92) scale(1.25 1)">F<tspan class="cls-5" x="9.09" y="0">ast</tspan></text><path class="cls-6" d="M43.72,82.46c-.06.31.08.66,1.28,1.33l.12.07.07.89-.09-.06a.08.08,0,0,0-.11,0l0,.08a.06.06,0,0,0,0,.1l.25.16.07.9-.06,0a.07.07,0,0,0-.1,0l-.05.08a.08.08,0,0,0,0,.1l.21.14.06.72.52.32.37-2.84,1.73.88,0,.94.35.22.24-.91.28.07-.18-.23.71-.61-.34-.21-.87.36-1.54-1.17,2.39-1.57-.51-.32-.68.26-.21-.13a.07.07,0,0,0-.11,0l-.05.08a.07.07,0,0,0,0,.1l.05,0-.84.32-.25-.15a.08.08,0,0,0-.1,0l0,.08a.08.08,0,0,0,0,.11l.09.06-.84.32L45.51,83c-1.12-.79-1.5-.76-1.75-.57Z" transform="translate(-20.29 -76.84)"/><path class="cls-6" d="M50,88.37a4.42,4.42,0,0,1-.73,2.29c-.1.15-.21.29-.32.43-1.49,1.78-4.84,3.31-10.23,5.23-5.55,2-11.44,4-12.09,8.05A13.5,13.5,0,0,1,38.8,86.22h.42c.25,0,.49,0,.73,0a13.48,13.48,0,0,1,8.65,3.82l0,0A3.19,3.19,0,0,0,50,88.37Z" transform="translate(-20.29 -76.84)"/><path class="cls-6" d="M34.49,112.29c-.34-.13-.67-.27-1-.42h0a13,13,0,0,1-1.67-.94h0c-3-2.7,1.89-7.79,8.67-10.82C33,104.9,32.75,109.13,34.49,112.29Z" transform="translate(-20.29 -76.84)"/><path class="cls-6" d="M47.54,93.85l-.25.21C42,98.49,34.73,100.18,31,104.39a6.93,6.93,0,0,0-2,4.07,9.89,9.89,0,0,1-.71-.89h0l-.2-.29a1.94,1.94,0,0,1-.27-1.67,7.28,7.28,0,0,1,3.43-4C35.69,98.83,41.42,97.46,47.54,93.85Z" transform="translate(-20.29 -76.84)"/><path class="cls-6" d="M50,88.37a4.42,4.42,0,0,1-.73,2.29c-.1.15-.21.29-.32.43-1.49,1.78-4.84,3.31-10.23,5.23-5.55,2-11.44,4-12.09,8.05A13.5,13.5,0,0,1,38.8,86.22h.42c.25,0,.49,0,.73,0-6.09,0-11.93,5.8-11.33,11.6,1.65-5,13.81-4.27,20-7.78l0,0A3.19,3.19,0,0,0,50,88.37Z" transform="translate(-20.29 -76.84)"/><path class="cls-6" d="M52.69,99.68V100a13.47,13.47,0,0,1-12.57,13.09,5,5,0,0,1-1.86-.54c-3.62-1.85-3-6.66.47-9.57,4.42-3.67,9.83-7.28,11.55-11a5.15,5.15,0,0,0-1-6c2.51,1.59,3.48,4.74,2.21,8.22h0a13.26,13.26,0,0,1,1.1,4.14A10.91,10.91,0,0,1,52.69,99.68Z" transform="translate(-20.29 -76.84)"/><path class="cls-6" d="M51.52,94.25c-1.93,4.64-11,10.72-12.11,13-1.65,3.47,2.87,4.89,6.39,2.28-6.68-.4,5.63-6,6.82-11.11Z" transform="translate(-20.29 -76.84)"/><path class="cls-6" d="M34.49,112.29c-.34-.13-.67-.27-1-.42h0c-3.36-4.66.91-8.12,7-11.76C33,104.9,32.75,109.13,34.49,112.29Z" transform="translate(-20.29 -76.84)"/><path class="cls-6" d="M47.29,94.06C42,98.49,34.73,100.18,31,104.39a6.93,6.93,0,0,0-2,4.07,9.89,9.89,0,0,1-.71-.89h0C27.87,101,41.85,98.39,47.29,94.06Z" transform="translate(-20.29 -76.84)"/></svg>